<!--?xml version="1.0" encoding="utf-8"?-->
<!-- Generator: Adobe Illustrator 18.1.1, SVG Export Plug-In . SVG Version: 6.00 Build 0)  -->

<svg version="1.1" id="_x31_0" xmlns="http://www.w3.org/2000/svg" xmlns:xlink="http://www.w3.org/1999/xlink" x="0px" y="0px" viewBox="0 0 512 512" style="width: 512px; height: 512px; opacity: 1;" xml:space="preserve">
<style type="text/css">
	.st0{fill:#374149;}
</style>
<g>
	<path class="st0" d="M479.438,2.865H32.562C14.578,2.865,0,17.444,0,35.428v217.676c0,30.789,5.574,60.324,15.652,87.73
		c0.028,0.078,0.055,0.156,0.086,0.234c1.281,3.48,2.648,6.918,4.074,10.324c0.277,0.656,0.546,1.321,0.824,1.977
		c1.25,2.91,2.558,5.785,3.91,8.637c0.538,1.141,1.082,2.281,1.636,3.414c1.188,2.41,2.414,4.797,3.676,7.168
		c0.817,1.539,1.645,3.07,2.492,4.59c1.106,1.976,2.231,3.938,3.383,5.882c1.11,1.871,2.242,3.722,3.394,5.558
		c1.004,1.594,2.012,3.18,3.047,4.75c1.402,2.133,2.847,4.238,4.312,6.324c0.891,1.266,1.778,2.535,2.692,3.786
		c1.695,2.328,3.445,4.617,5.218,6.886c0.774,0.992,1.543,1.988,2.332,2.969c1.988,2.465,4.031,4.882,6.106,7.274
		c0.66,0.758,1.305,1.527,1.977,2.277c2.27,2.555,4.602,5.051,6.969,7.512c0.546,0.566,1.074,1.145,1.625,1.703
		c2.539,2.59,5.141,5.117,7.789,7.598c0.438,0.41,0.863,0.836,1.305,1.242c2.774,2.566,5.614,5.062,8.5,7.504
		c0.363,0.308,0.715,0.633,1.082,0.938c2.965,2.484,5.996,4.89,9.074,7.238c0.325,0.246,0.637,0.512,0.961,0.758
		c3.11,2.347,6.282,4.617,9.497,6.824c0.324,0.222,0.637,0.465,0.965,0.687c3.046,2.07,6.156,4.055,9.293,5.996
		c44.598,27.645,98.176,42.012,155.121,37.398C410.762,497.44,512,382.081,512,247.873V35.428
		C512,17.444,497.422,2.865,479.438,2.865z M431.742,136.533v-27.187h1.113h26.918h11.293v27.187h-11.293h-26.918H431.742z
		 M393.809,136.533h-39.328v-27.187h39.328v27.179V136.533z M40.93,109.346h12.41h26.914v27.187H53.34H40.93V109.346z
		 M197.707,136.533v-27.187h39.324v27.187H197.707z M276.094,136.533v-27.187h39.324v27.187H276.094z M158.641,136.533h-39.324
		v-27.187h39.324V136.533z M54.363,212.338c0-16.047,20.454-22.832,29.981-9.922c50.758,68.786,127.969,125.738,222.789,156.899
		c23.695,7.758,47.484,13.621,71.086,17.605c13.68,2.313,18.661,19.68,8.196,28.79c-31.77,27.672-72.024,45.504-116.325,48.554
		c-4.687,0.34-9.445,0.477-14.137,0.477c-111.125,0-201.59-90.469-201.59-201.657V212.338z" style="fill: rgb(255, 255, 255);"></path>
</g>
</svg>
