<?xml version="1.0" encoding="UTF-8" standalone="no"?>
<!DOCTYPE svg PUBLIC "-//W3C//DTD SVG 1.1//EN" "http://www.w3.org/Graphics/SVG/1.1/DTD/svg11.dtd">
<svg width="100%" height="100%" viewBox="0 0 512 512" version="1.1" xmlns="http://www.w3.org/2000/svg" xmlns:xlink="http://www.w3.org/1999/xlink" xml:space="preserve" xmlns:serif="http://www.serif.com/" style="fill-rule:evenodd;clip-rule:evenodd;">
    <path id="選択範囲" d="M446.945,7.309C450.015,5.819 511.937,-0 511.937,-0L503.938,66.712L247.969,322.96C247.969,322.96 192.146,268.457 191.126,265.687C190.147,262.978 445.305,9.149 446.975,7.309M94.988,378.953C94.988,378.953 132.234,316.311 131.074,310.962C129.964,305.772 120.895,297.873 116.986,293.964L81.99,258.968C79.33,256.308 69.111,246.73 68.162,243.97C66.842,240.15 100.878,205.975 104.897,207.534C107.457,208.534 114.246,216.163 116.716,218.463C116.716,218.463 305.062,405.72 305.172,408.27C305.302,411.449 275.416,441.326 268.967,445.945L211.974,388.952C209.184,386.172 204.925,381.553 200.975,380.703C196.306,379.703 138.503,413.369 136.873,416.159C134.893,419.538 137.353,424.498 138.223,427.947L139.663,447.945C137.103,481.941 108.797,511.527 73.991,511.937C59.223,512.107 48.194,510.887 34.996,503.498C-0.55,483.6 -10.259,437.966 10.459,403.95C23.697,382.213 49.844,370.264 74.991,372.164C80.82,372.604 90.199,375.694 94.988,378.953ZM64.992,408.25C53.553,410.41 44.365,416.349 38.985,426.947C27.877,448.855 43.745,475.022 67.992,476.191C100.168,477.751 116.266,438.676 92.949,417.129C90.029,414.439 85.749,411.519 81.99,410.19C76.321,408.18 70.941,407.66 64.992,408.25ZM66.992,424.428C88.599,422.338 95.378,450.605 76.991,458.584C74.071,459.843 71.131,460.063 67.992,459.903C54.423,459.193 47.854,444.245 54.353,432.947C57.493,427.507 61.132,425.788 66.992,424.428Z" style="fill:white;fill-rule:nonzero;stroke:white;stroke-width:1px;"/>
</svg>
